<?xml version="1.0" standalone="no"?>
<!DOCTYPE svg PUBLIC "-//W3C//DTD SVG 20010904//EN"
 "http://www.w3.org/TR/2001/REC-SVG-20010904/DTD/svg10.dtd">
<svg version="1.0" xmlns="http://www.w3.org/2000/svg"
 width="320.000000pt" height="320.000000pt" viewBox="0 0 320.000000 320.000000"
 preserveAspectRatio="xMidYMid meet">
<metadata>
Created by potrace 1.14, written by Peter Selinger 2001-2017
</metadata>
<g transform="translate(0.000000,320.000000) scale(0.100000,-0.100000)"
fill="#000000" stroke="none">
<path d="M1278 3175 c-59 -13 -142 -35 -185 -50 -94 -33 -272 -117 -330 -156
-23 -16 -44 -29 -48 -29 -4 0 -12 -6 -20 -12 -7 -7 -26 -22 -41 -33 -45 -32
-186 -157 -219 -194 -76 -86 -106 -124 -156 -196 -42 -60 -149 -254 -153 -278
-1 -6 -10 -30 -20 -52 -15 -35 -70 -230 -81 -286 -20 -103 -27 -385 -12 -494
26 -195 99 -419 184 -564 15 -25 27 -48 27 -51 -1 -7 82 -126 125 -180 115
-146 310 -315 444 -385 20 -11 37 -23 37 -27 0 -5 6 -8 13 -8 6 0 41 -15 77
-33 90 -46 227 -93 356 -121 98 -22 132 -24 334 -24 183 0 243 4 319 19 108
23 248 68 338 111 34 16 66 29 70 30 4 0 19 8 33 17 14 10 32 21 40 25 89 41
292 202 374 295 91 102 81 91 143 176 27 39 65 99 84 135 19 36 37 66 42 68 4
2 7 11 7 21 0 9 4 21 9 27 19 19 63 142 96 267 l34 128 1 267 c1 293 -5 339
-61 512 -89 275 -251 517 -482 724 -127 112 -340 234 -517 295 -188 66 -302
82 -554 80 -168 -1 -219 -5 -308 -24z"/>
</g>
</svg>
